<?xml version="1.0" encoding="UTF-8" standalone="no"?>
<!-- Created with Inkscape (http://www.inkscape.org/) -->

<svg
   xmlns:dc="http://purl.org/dc/elements/1.1/"
   xmlns:cc="http://creativecommons.org/ns#"
   xmlns:rdf="http://www.w3.org/1999/02/22-rdf-syntax-ns#"
   xmlns:svg="http://www.w3.org/2000/svg"
   xmlns="http://www.w3.org/2000/svg"
   xmlns:xlink="http://www.w3.org/1999/xlink"
   xmlns:sodipodi="http://sodipodi.sourceforge.net/DTD/sodipodi-0.dtd"
   xmlns:inkscape="http://www.inkscape.org/namespaces/inkscape"
   width="512"
   height="512"
   viewBox="0 0 135.46666 135.46667"
   version="1.1"
   id="svg8"
   inkscape:version="0.92.2 (5c3e80d, 2017-08-06)"
   sodipodi:docname="Base.svg"
   inkscape:export-filename="D:\Users\lucas\Desktop\icon.png"
   inkscape:export-xdpi="96.000008"
   inkscape:export-ydpi="96.000008">
  <defs
     id="defs2">
    <linearGradient
       inkscape:collect="always"
       id="linearGradient4576">
      <stop
         style="stop-color:#4ae387;stop-opacity:1;"
         offset="0"
         id="stop4572" />
      <stop
         style="stop-color:#1bad55;stop-opacity:1"
         offset="1"
         id="stop4574" />
    </linearGradient>
    <radialGradient
       inkscape:collect="always"
       xlink:href="#linearGradient4576"
       id="radialGradient4578"
       cx="66.121551"
       cy="231.1493"
       fx="66.121551"
       fy="231.1493"
       r="37.644355"
       gradientTransform="matrix(1.3148528,0,0,1.7531371,-214.09133,-199.34482)"
       gradientUnits="userSpaceOnUse" />
    <symbol
       id="FirstAid_Inv">
      <title
         id="title4793">First Aid</title>
      <rect
         x="0.13229166"
         y="0.13229166"
         width="18.785418"
         height="18.785418"
         ry="1.5875"
         style="stroke:#ffffff;stroke-width:0.26458332"
         id="rect4795" />
      <path
         inkscape:connector-curvature="0"
         d="m 11.641667,3.4395833 v 3.96875 h 3.96875 v 4.2333337 h -3.96875 v 3.96875 H 7.4083333 v -3.96875 h -3.96875 V 7.4083333 h 3.96875 v -3.96875 z"
         style="fill:#ffffff;stroke:none;stroke-width:0.26458332"
         id="path4797" />
    </symbol>
  </defs>
  <sodipodi:namedview
     id="base"
     pagecolor="#ffffff"
     bordercolor="#666666"
     borderopacity="1.0"
     inkscape:pageopacity="0.0"
     inkscape:pageshadow="2"
     inkscape:zoom="1.0956472"
     inkscape:cx="218.04798"
     inkscape:cy="253.30761"
     inkscape:document-units="mm"
     inkscape:current-layer="layer1"
     showgrid="false"
     units="px"
     inkscape:window-width="2560"
     inkscape:window-height="1017"
     inkscape:window-x="-8"
     inkscape:window-y="-8"
     inkscape:window-maximized="1" />
  <metadata
     id="metadata5">
    <rdf:RDF>
      <cc:Work
         rdf:about="">
        <dc:format>image/svg+xml</dc:format>
        <dc:type
           rdf:resource="http://purl.org/dc/dcmitype/StillImage" />
        <dc:title />
      </cc:Work>
    </rdf:RDF>
  </metadata>
  <g
     inkscape:label="Camada 1"
     inkscape:groupmode="layer"
     id="layer1"
     transform="translate(0,-161.53332)">
    <circle
       style="fill:#ffffff;fill-opacity:1;stroke:#4ae387;stroke-width:6.69755936;stroke-miterlimit:4;stroke-dasharray:none;stroke-opacity:1"
       id="path845"
       cx="67.73333"
       cy="229.26665"
       r="60.651218"
       inkscape:export-xdpi="96"
       inkscape:export-ydpi="96" />
    <path
       style="fill:#4ae387;fill-opacity:1;stroke:none;stroke-width:0.10328967"
       d="m 39.551039,263.13589 c -0.07829,-0.6106 0.203736,-1.7503 0.698153,-2.82126 0.249128,-0.53963 0.494191,-0.99773 0.544617,-1.01802 0.05044,-0.0204 0.258215,-0.45899 0.461799,-0.97499 0.285639,-0.72397 0.599134,-1.28204 1.373129,-2.44442 0.551637,-0.8284 1.167262,-1.84706 1.368092,-2.2636 1.042842,-2.16305 2.665185,-4.7065 3.848669,-6.03388 0.374685,-0.42023 0.865836,-0.97449 1.091362,-1.23171 0.567591,-0.6473 5.600832,-7.14161 7.784869,-10.04484 1.929532,-2.56501 2.506993,-3.44388 2.924826,-4.45237 0.145604,-0.35142 0.477296,-1.05965 0.737073,-1.57389 0.761483,-1.50739 1.460056,-3.08225 1.479561,-3.33547 0.01244,-0.16215 -0.04998,-0.26278 -0.201491,-0.32495 -0.27925,-0.1145 -0.670877,-0.65953 -0.799483,-1.11248 -0.05475,-0.19245 -0.09465,-0.628 -0.08889,-0.9676 0.01,-0.58637 -0.101215,-0.69066 -0.177151,-0.16607 -0.09139,0.63183 -1.392656,1.84857 -1.89864,1.7754 -0.236303,-0.0341 -0.309984,-0.0957 -0.467395,-0.3887 -0.102741,-0.1915 -0.213248,-0.3676 -0.245519,-0.39138 -0.12541,-0.0924 -0.427325,-1.42807 -0.701456,-3.10334 -0.314849,-1.92411 -0.411878,-2.20575 -0.878856,-2.55103 -0.376646,-0.27844 -0.788601,-0.35607 -1.355622,-0.25541 -0.411633,0.0731 -0.428955,0.0892 -1.120788,1.04344 -0.625725,0.8634 -1.308731,1.98646 -1.582612,2.60327 -0.05976,0.13458 -0.03491,0.26295 0.06524,0.33676 0.08897,0.0655 0.207843,0.32962 0.264029,0.58684 0.07715,0.35291 0.04912,0.56806 -0.114268,0.8772 -0.363091,0.6871 -0.680778,0.90332 -1.478466,1.00717 l -0.721628,0.0939 -0.389373,0.73037 c -0.320772,0.60169 -0.447299,0.76535 -0.717753,0.9294 -0.180562,0.1095 -0.479157,0.34779 -0.663487,0.5295 -0.668533,0.659 -1.562597,1.37075 -2.259793,1.79899 -0.39173,0.2406 -0.819736,0.53062 -0.951123,0.64447 -0.246911,0.21395 -1.322055,0.87913 -2.604212,1.6112 -0.404678,0.23105 -0.935855,0.53572 -1.180394,0.67704 -0.244587,0.14129 -0.540262,0.26245 -0.657151,0.26921 -0.116922,0.006 -0.25065,0.064 -0.297261,0.12732 -0.07409,0.10052 -0.700479,0.43891 -2.19743,1.18703 -0.228309,0.11398 -0.645079,0.32657 -0.92625,0.47219 -0.608225,0.31504 -1.116514,0.49474 -2.979826,1.05351 -2.183621,0.65485 -2.30558,0.68899 -2.482441,0.69509 -0.382161,0.0132 -1.346518,0.25666 -1.09535,0.27652 0.305339,0.0241 0.385074,0.19807 0.120704,0.2637 -0.0971,0.024 -0.451994,0.005 -0.788503,-0.0431 -0.336493,-0.0477 -0.757483,-0.085 -0.935501,-0.0828 -1.22616,0.0149 -3.188814,-0.26915 -3.324503,-0.48115 -0.124628,-0.1944 0.179036,-0.51257 0.520244,-0.54495 0.170748,-0.0163 0.504776,-0.0103 0.742335,0.0128 0.237576,0.023 0.584942,0.0217 0.771982,-0.003 0.187015,-0.0246 0.803276,-0.0465 1.369404,-0.0487 2.364732,-0.009 4.876109,-0.625 7.11538,-1.74518 0.484848,-0.24256 1.013833,-0.48785 1.175517,-0.54513 0.369109,-0.13074 2.183493,-1.08566 2.742459,-1.44334 0.978671,-0.62628 3.322874,-2.02256 3.75519,-2.23669 0.917316,-0.45438 3.379238,-2.2304 3.705476,-2.67312 0.102369,-0.13891 0.08469,-0.16758 -0.121807,-0.19742 -0.344924,-0.0499 -0.413827,-0.46861 -0.13862,-0.84208 0.188443,-0.25573 0.186485,-0.29172 -0.02007,-0.36454 -0.126103,-0.0444 -0.672879,-0.0827 -1.215213,-0.085 -0.542361,-0.003 -1.231625,-0.0115 -1.531734,-0.0213 -1.02165,-0.0322 -1.602573,0.1307 -2.815219,0.78913 -0.644049,0.34971 -1.54418,0.83267 -2.000312,1.07325 -0.456127,0.2406 -1.181682,0.69154 -1.612379,1.00211 -0.430696,0.31059 -1.038196,0.70631 -1.350011,0.87939 -0.311801,0.17308 -0.587076,0.34205 -0.611696,0.37546 -0.02457,0.0333 -0.395578,0.26354 -0.824345,0.5114 -0.428766,0.24784 -0.82492,0.51122 -0.880328,0.58524 -0.05549,0.0741 -0.18203,0.13928 -0.281404,0.14502 -0.138114,0.008 -0.187421,-0.0567 -0.209314,-0.27386 -0.03816,-0.37823 0.424968,-0.973 1.299013,-1.66823 0.367437,-0.29231 0.792778,-0.64165 0.945172,-0.77632 0.152423,-0.13468 0.57366,-0.40165 0.9361,-0.59326 0.362438,-0.1916 1.171582,-0.69235 1.798095,-1.11278 1.334974,-0.89584 2.476615,-1.55568 4.032305,-2.33056 0.618427,-0.30806 1.198208,-0.66025 1.288405,-0.78269 0.154506,-0.20974 0.118563,-0.21396 -0.620193,-0.0724 -0.432857,0.0828 -0.908637,0.0989 -1.062041,0.0355 -0.350668,-0.14453 -0.581627,-0.54726 -0.431238,-0.75135 0.146442,-0.19872 1.000098,-0.47302 1.434216,-0.46085 0.575861,0.0162 1.185951,-0.0445 1.172321,-0.11655 -0.0073,-0.0381 -0.382085,-0.19522 -0.832945,-0.34951 -0.450964,-0.15412 -0.959961,-0.37297 -1.131159,-0.48624 -0.330784,-0.21874 -0.352918,-0.22183 -2.327774,-0.3188 -1.122999,-0.0551 -2.29382,-0.20162 -4.57192,-0.57181 -0.346628,-0.0563 -0.655018,-0.12001 -0.685351,-0.14144 -0.03037,-0.0215 -0.393666,-0.0768 -0.807477,-0.12296 -2.802141,-0.31293 -5.239671,-0.81356 -6.947747,-1.42695 -0.502209,-0.18035 -1.255709,-0.43995 -1.674432,-0.57689 -0.7827,-0.25597 -1.989703,-1.02654 -1.970762,-1.25823 0.0184,-0.22485 0.45856,-0.16935 0.962571,0.12142 0.632059,0.3648 1.435717,0.62731 3.748389,1.22505 2.23036,0.57649 5.341071,1.13429 6.015363,1.07867 0.118499,-0.0103 0.26064,0.0154 0.315609,0.0559 0.164739,0.12143 3.137135,0.49992 3.723431,0.47417 0.299209,-0.0131 0.58178,0.004 0.6279,0.0379 0.178932,0.13184 1.997649,0.15386 2.225526,0.0269 0.132422,-0.0737 0.275221,-0.10872 0.31735,-0.0777 0.04213,0.031 0.382717,0.0886 0.756777,0.12809 0.374118,0.0394 0.79694,0.10566 0.939631,0.1471 0.494012,0.1437 2.772979,0.40793 2.831652,0.32831 0.253051,-0.34341 -2.71e-4,-1.76296 -0.430274,-2.41115 -0.329509,-0.49669 -1.828147,-1.51787 -3.954454,-2.69487 -0.802022,-0.44384 -1.61976,-0.90117 -1.817283,-1.01616 -0.197543,-0.11502 -0.62938,-0.35165 -0.95993,-0.52554 -1.763172,-0.92878 -2.525229,-1.34391 -3.295881,-1.79548 -0.468172,-0.27443 -1.211566,-0.67595 -1.651866,-0.89241 -2.165584,-1.06479 -3.627331,-1.96378 -5.811441,-3.57411 -1.496969,-1.1037 -1.861778,-1.40807 -1.887018,-1.57447 -0.09686,-0.63934 0.389998,-0.44205 2.203952,0.89317 0.837315,0.61636 1.909755,1.35743 2.383017,1.64709 1.838275,1.12445 3.672057,2.16531 4.360711,2.47516 0.396014,0.1781 0.894415,0.44198 1.10766,0.58623 0.701942,0.47474 1.628064,0.99845 2.266765,1.2817 1.376131,0.61024 7.031124,3.98961 7.150655,4.27323 0.01995,0.0472 0.15977,0.14082 0.311052,0.20786 0.203002,0.0904 0.366841,0.0644 0.62724,-0.0994 l 0.352497,-0.22173 -0.237171,-0.39249 c -0.130358,-0.216 -0.294781,-0.43494 -0.365188,-0.48683 -0.07042,-0.0519 -0.140275,-0.1521 -0.155354,-0.22261 -0.04476,-0.20947 -0.923514,-1.4195 -1.525259,-2.10022 -0.307907,-0.34827 -0.771998,-0.89375 -1.031356,-1.21214 -0.259441,-0.31827 -0.842586,-0.97643 -1.296052,-1.46232 -0.453529,-0.48582 -0.967287,-1.04226 -1.141818,-1.23635 -0.17454,-0.19407 -0.669295,-0.73462 -1.099478,-1.20119 -0.43019,-0.46656 -0.916649,-1.06004 -1.081038,-1.31883 -0.16441,-0.25876 -0.446311,-0.63172 -0.626512,-0.82873 -0.18014,-0.19708 -0.492865,-0.65613 -0.694771,-1.02032 -0.201929,-0.36417 -0.412859,-0.69605 -0.468759,-0.7375 -0.05586,-0.0414 -0.167872,-0.23711 -0.248695,-0.435 -0.08085,-0.19782 -0.398936,-0.78474 -0.706798,-1.30432 -0.307848,-0.5196 -0.576456,-1.00038 -0.596926,-1.06837 -0.08653,-0.28783 -1.773843,-3.61872 -2.160679,-4.26545 -0.232007,-0.38787 -0.554302,-1.04743 -0.716213,-1.46569 -0.161897,-0.41827 -0.384985,-0.99008 -0.495724,-1.27074 -0.110703,-0.2807 -0.251413,-0.81453 -0.312591,-1.18637 -0.167114,-1.01594 0.200697,-1.33217 0.445462,-0.38303 0.243182,0.94298 0.81072,2.28919 1.843273,4.37231 0.58898,1.18817 2.29763,4.38398 2.51532,4.70453 0.145948,0.21473 0.351587,0.58938 0.457112,0.83236 0.398048,0.91654 1.479016,2.64669 2.268448,3.63076 0.202326,0.25214 0.78875,0.90585 1.303225,1.45259 0.51444,0.54682 1.255869,1.34275 1.64752,1.7689 0.666701,0.72542 0.936369,1.00712 2.19307,2.29088 0.271666,0.27774 0.761945,0.84644 1.089294,1.26409 0.327319,0.41769 0.686906,0.86993 0.798984,1.00512 0.1121,0.13517 0.277787,0.39614 0.368285,0.57982 0.09046,0.18372 0.213788,0.37034 0.274041,0.41473 0.06021,0.0444 0.178304,0.27569 0.262284,0.51405 0.08398,0.23837 0.188151,0.45939 0.231412,0.49128 0.116486,0.0858 0.351767,-0.0924 0.829871,-0.62861 0.268011,-0.30057 0.586839,-0.54467 0.855043,-0.65456 1.071828,-0.43918 1.095285,-0.45766 1.082825,-0.85306 -0.01244,-0.39575 0.11732,-0.62747 0.436595,-0.77942 0.134019,-0.0639 0.727653,-0.80731 1.62436,-2.03426 1.799804,-2.46297 2.575892,-3.23065 4.208895,-4.16457 l 1.098749,-0.62838 1.070395,-1.3506 c 3.107976,-3.92148 3.195657,-4.01945 3.57543,-3.99433 0.837505,0.0554 1.152454,0.73169 1.048281,2.25159 -0.08166,1.19198 -0.08409,1.61551 -0.0099,1.73142 0.07198,0.11245 1.541611,0.58403 2.004542,0.64325 0.117075,0.0149 0.486579,0.0867 0.821139,0.15938 0.570306,0.12386 0.865596,0.21978 2.122365,0.6892 l 0.503109,0.18785 0.278366,-0.42817 c 0.153053,-0.23554 0.486573,-0.82376 0.741035,-1.3073 0.412503,-0.78374 0.869647,-1.58346 1.805726,-3.15886 0.645464,-1.08625 0.80406,-1.253 1.145289,-1.20364 0.575078,0.0832 0.835618,0.79033 0.626211,1.69922 -0.05827,0.25264 -0.299718,0.96961 -0.53668,1.59324 -0.516672,1.35979 -1.23795,3.57455 -1.219008,3.74314 0.0074,0.0663 0.358636,0.18815 0.780268,0.27068 0.915375,0.17898 3.466116,0.90281 4.015034,1.13934 0.214275,0.0923 0.807548,0.24513 1.318457,0.33958 1.03452,0.19125 0.856083,0.26232 2.212258,-0.88099 1.312813,-1.10678 2.831328,-1.80309 3.253588,-1.49193 0.461049,0.33975 0.825109,1.61311 0.746041,2.60943 -0.0086,0.10744 -0.01591,0.46995 -0.01644,0.80583 -9.19e-4,0.59805 0.0072,0.61513 0.393113,0.82593 0.480208,0.26244 2.201562,0.86806 3.234448,1.13817 0.742889,0.19425 1.490003,0.46893 3.578481,1.31559 0.570504,0.23132 1.473368,0.57312 2.006309,0.75965 0.532931,0.18653 1.144657,0.41414 1.359365,0.50583 0.21465,0.0918 0.836836,0.34436 1.382546,0.56143 0.5457,0.21708 1.46879,0.68814 2.05128,1.04685 2.329346,1.43437 2.613466,1.63652 3.166366,2.25267 0.52888,0.58928 1.434,2.15614 1.41385,2.44734 -0.0187,0.26975 -0.42101,0.71841 -0.84229,0.93926 -0.43557,0.22833 -0.87655,0.22955 -2.18833,0.006 -0.407516,-0.0695 -0.913586,-0.12707 -1.124576,-0.12797 -0.3823,-0.001 -3.890167,-0.62172 -4.004157,-0.70771 -0.033,-0.0249 -0.453278,-0.13829 -0.934016,-0.25201 -0.480723,-0.11373 -1.350882,-0.34323 -1.933697,-0.50995 -0.582809,-0.16673 -1.714972,-0.47161 -2.515936,-0.67746 -0.800949,-0.20588 -1.95316,-0.52272 -2.560462,-0.7041 -0.607304,-0.18137 -1.294815,-0.37447 -1.527806,-0.42909 -0.232992,-0.0546 -0.522372,-0.17121 -0.643079,-0.25905 -0.415553,-0.30144 -0.568681,-0.2349 -0.563157,0.24639 0.0027,0.23698 -0.03493,0.77677 -0.08366,1.19957 -0.07893,0.68488 -0.146447,1.51214 -0.228277,2.79729 -0.01453,0.22829 -0.02548,0.64672 -0.0243,0.92985 0.0012,0.28316 -0.04947,0.88093 -0.112537,1.32843 -0.06307,0.4475 -0.104625,1.08086 -0.09234,1.40746 0.01982,0.52683 -0.0095,1.33 -0.08211,2.24896 -0.0463,0.58613 0.523308,4.05323 0.801795,4.88036 0.154919,0.46011 0.29816,0.94008 0.318309,1.06661 0.02008,0.12655 0.07369,0.38687 0.118973,0.57855 0.04626,0.19542 0.01859,0.43499 -0.06288,0.54556 -0.09653,0.131 -0.09855,0.42027 -0.0062,0.86234 0.219693,1.0513 0.333936,1.51392 0.385492,1.56122 0.02627,0.0241 0.179917,0.45218 0.341352,0.95134 0.710508,2.19662 1.759995,4.98645 2.192924,5.82942 1.046841,2.03838 1.91284,3.26245 4.614706,6.52261 0.668112,0.80619 0.843886,0.95766 2.785944,2.40043 1.575289,1.17196 2.347969,1.68814 3.221009,2.15826 1.764406,0.95023 3.077866,1.67595 3.966346,2.19149 0.44499,0.25799 1.07964,0.61119 1.41056,0.78457 0.96129,0.50366 1.78723,1.14603 1.80204,1.40164 0.0102,0.18521 -0.0296,0.21831 -0.27948,0.22971 -0.49382,0.0226 -1.70443,-0.5704 -2.70916,-1.32687 -0.84875,-0.63818 -1.40755,-0.96363 -3.638046,-2.11466 -1.7129,-0.88383 -2.09007,-1.12468 -4.275355,-2.72977 -2.031607,-1.49231 -2.260063,-1.6847 -2.893438,-2.42868 -1.298146,-1.52651 -2.102892,-2.54725 -2.851727,-3.61703 -0.702498,-1.00358 -0.908339,-1.33303 -1.479959,-2.36865 -0.125077,-0.2266 -0.361775,-0.61056 -0.525981,-0.85327 -0.407048,-0.60156 -0.96352,-1.84404 -1.086419,-2.42571 -0.146262,-0.69214 -0.540959,-1.70415 -0.769692,-1.97343 -0.186198,-0.21923 -0.203144,-0.2177 -0.304293,0.0289 -0.06474,0.15784 -0.268647,0.36491 -0.5154,0.52336 -0.348573,0.22388 -0.497646,0.24478 -1.018621,0.14287 -0.601698,-0.1177 -0.622293,-0.13023 -1.461703,-0.88866 -0.860021,-0.77693 -1.076638,-1.08042 -1.300244,-1.82166 -0.06761,-0.22416 -0.195427,-0.42748 -0.283988,-0.45186 -0.516164,-0.14209 -1.173534,-1.44857 -1.40903,-2.80028 l -0.126898,-0.72838 -0.474267,-0.26109 c -0.359319,-0.19773 -0.535838,-0.36237 -0.728017,-0.67902 -0.139523,-0.22991 -0.233184,-0.44612 -0.208079,-0.48055 0.02502,-0.0342 -0.0064,-0.10116 -0.07022,-0.14811 -0.06376,-0.0471 -0.154279,-0.29124 -0.201214,-0.54268 -0.04689,-0.25152 -0.169519,-0.62566 -0.272503,-0.83142 -0.185221,-0.37013 -0.939876,-1.36207 -1.026273,-1.34899 -0.04377,0.006 -0.521282,2.0779 -0.685404,2.97309 -0.04561,0.24867 -0.270112,1.15137 -0.498927,2.00599 -0.228812,0.85461 -0.415682,1.61181 -0.415286,1.68269 4.09e-4,0.0709 -0.04072,0.41584 -0.09142,0.7666 -0.0507,0.35077 -0.126692,0.92987 -0.168891,1.2869 -0.05794,0.49026 -0.152772,0.75311 -0.387401,1.0739 -0.237601,0.32482 -0.296932,0.49241 -0.25227,0.71227 0.03214,0.1581 0.02743,0.4758 -0.01039,0.70598 -0.03791,0.23019 -0.04926,0.45276 -0.02527,0.49458 0.02411,0.0417 0.04444,0.30764 0.04548,0.59064 0.0022,0.5924 -7.35e-4,0.45119 0.03824,1.8886 0.01659,0.61206 0.05479,1.31292 0.08488,1.5575 0.03009,0.24456 0.03391,0.71963 0.0085,1.05567 -0.0254,0.33604 -0.02357,1.2463 0.0041,2.02277 0.07371,2.07038 0.0686,2.49292 -0.06139,5.0776 -0.06503,1.29287 -0.133796,2.74335 -0.152826,3.22332 -0.01901,0.47994 -0.04891,1.093 -0.06645,1.36236 -0.01753,0.26935 -0.02403,0.58282 -0.01441,0.6966 0.08147,0.96508 0.07671,1.95047 -0.01,2.06814 -0.05795,0.0786 -0.04448,0.37227 0.02977,0.65272 0.07425,0.28046 0.11114,0.58465 0.08201,0.67594 -0.07001,0.21933 0.625368,5.00902 1.159724,7.98802 0.233352,1.30106 0.410193,2.58794 0.392941,2.85978 -0.06688,1.05421 0.682722,5.56208 1.312239,7.89127 0.07143,0.26438 0.177806,0.66026 0.236344,0.87983 0.550359,2.06406 0.691823,2.49888 1.123662,3.45378 0.256443,0.56709 0.612769,1.26314 0.79185,1.54682 0.179127,0.28362 0.410538,0.6903 0.514334,0.90358 0.103703,0.21339 0.226422,0.41557 0.272499,0.44952 0.103113,0.076 0.371995,0.82109 0.481097,1.33339 0.09764,0.45856 -0.08819,0.67324 -0.419069,0.48397 -0.535844,-0.30647 -2.499361,-4.05375 -2.89665,-5.52808 -0.152488,-0.56592 -0.162144,-0.59876 -0.308691,-1.04909 -0.07416,-0.22792 -0.157118,-0.51741 -0.184307,-0.64332 -0.02722,-0.12603 -0.170733,-0.66468 -0.318966,-1.19729 -0.84419,-3.03354 -1.600087,-7.05509 -1.529975,-8.13984 0.02118,-0.3279 -0.01973,-0.76305 -0.09096,-0.96695 -0.0712,-0.20393 -0.234659,-1.05985 -0.363212,-1.9021 -0.128575,-0.84221 -0.325397,-1.98546 -0.437376,-2.54054 -0.344128,-1.70542 -0.848644,-4.99824 -0.848835,-5.53999 -8.6e-5,-0.28235 -0.01051,-0.59727 -0.02314,-0.69983 -0.01269,-0.10245 0.0041,-0.22311 0.03705,-0.26791 0.03309,-0.0449 -0.02846,-0.22909 -0.136598,-0.40953 -0.184948,-0.3085 -0.256916,-0.97174 -0.124935,-1.15084 0.03279,-0.0445 0.03836,-0.16702 0.01231,-0.27208 -0.02611,-0.10514 -0.0064,-0.51691 0.0437,-0.91508 0.175079,-1.39166 0.340185,-4.65014 0.344551,-6.80007 0.0011,-0.55199 0.0095,-1.13127 0.01858,-1.28727 0.03313,-0.56806 0.03527,-1.36593 0.005,-1.84338 -0.01708,-0.26875 -0.0279,-0.9194 -0.02409,-1.44582 0.0069,-0.94981 -0.09823,-4.20424 -0.157064,-4.86302 -0.01684,-0.18889 -0.08001,-0.88736 -0.140301,-1.55224 -0.09135,-1.00751 -0.07469,-1.25631 0.100112,-1.49351 0.144403,-0.19596 0.197569,-0.42654 0.170666,-0.74041 -0.02313,-0.2699 0.106446,-0.94807 0.31771,-1.66282 0.196229,-0.66386 0.389692,-1.35596 0.429928,-1.53802 0.169952,-0.76896 0.292261,-1.22879 0.43786,-1.64614 0.08507,-0.24388 0.148484,-0.54358 0.140895,-0.666 -0.02067,-0.3332 1.039749,-4.67618 1.192338,-4.88325 0.07317,-0.0992 -0.534041,-1.1951 -0.75073,-1.35478 -0.39323,-0.28976 -1.351746,-1.66326 -1.644649,-2.35668 -0.176501,-0.41783 -0.345474,-0.77779 -0.375517,-0.79992 -0.03004,-0.0222 -0.17693,-0.3184 -0.326446,-0.6583 -0.149513,-0.33994 -0.363426,-0.7841 -0.475392,-0.98704 l -0.203567,-0.36897 -0.629693,0.33306 c -0.346351,0.1832 -0.867553,0.50425 -1.158234,0.71345 -0.290692,0.20922 -0.704553,0.4884 -0.919693,0.62041 -0.390113,0.23938 -0.391258,0.24154 -0.417015,0.78332 -0.01419,0.29878 -0.05924,0.79608 -0.1001,1.10514 -0.04086,0.30903 -0.0797,0.71341 -0.08634,0.89864 -0.0067,0.18525 -0.03625,0.82176 -0.06575,1.41454 -0.02953,0.59277 0.0026,1.69555 0.07124,2.45061 0.100753,1.10732 0.219066,1.62453 0.611748,2.67424 0.622992,1.6654 0.870985,2.2218 1.124954,2.52385 0.482633,0.57401 0.19032,0.85378 -0.421228,0.40313 -0.452834,-0.33368 -0.729483,-0.73731 -0.959858,-1.40087 -0.101728,-0.2929 -0.322587,-0.8651 -0.490817,-1.27153 -0.168228,-0.40645 -0.357678,-1.01123 -0.420987,-1.34398 -0.121704,-0.63971 -0.297787,-2.46223 -0.281339,-2.91192 0.0053,-0.14651 0.01378,-0.76174 0.01871,-1.36693 0.0049,-0.6052 0.0228,-1.11916 0.0397,-1.1421 0.08612,-0.11681 0.06775,-1.91397 -0.0196,-1.9211 -0.05606,-0.005 -0.287301,0.0845 -0.513863,0.1978 -0.234573,0.11745 -0.532059,0.17268 -0.690963,0.12841 -0.357405,-0.0998 -0.903463,-0.63947 -1.161213,-1.14801 -0.110524,-0.21841 -0.237967,-0.39132 -0.283072,-0.38442 -0.08418,0.0128 -0.563777,1.03516 -1.099075,2.34281 -0.166421,0.40661 -0.601243,1.38529 -0.96622,2.17485 -0.364966,0.78957 -0.7833,1.72265 -0.929635,2.0735 -0.356949,0.85593 -5.075786,7.37788 -8.416356,11.63235 -1.316225,1.67635 -2.904706,3.71024 -3.529884,4.51976 -0.625178,0.80951 -1.419032,1.76572 -1.764036,2.12496 -0.345021,0.35922 -0.71977,0.83364 -0.832695,1.05434 -0.234119,0.45736 -1.628196,2.71761 -3.335635,5.40791 -1.231676,1.94068 -1.808669,3.08326 -1.689632,3.34588 0.05261,0.11617 0.02031,0.18354 -0.119935,0.25036 -0.105536,0.0503 -0.186796,0.12552 -0.18052,0.16723 0.0063,0.0418 -0.142085,0.35855 -0.329708,0.70416 -0.330705,0.60899 -0.475413,1.07174 -0.722191,2.30928 -0.0649,0.32548 -0.179221,0.63096 -0.254049,0.67885 -0.219638,0.14054 -0.521909,-0.16909 -0.575828,-0.5899 z m 6.599311,-38.15104 c 0.5992,-0.0524 1.120791,-0.0722 1.159095,-0.044 0.03831,0.0282 0.393791,0.009 0.789956,-0.0423 0.790119,-0.1027 1.436231,-0.47469 1.463938,-0.84275 0.0219,-0.29066 -0.586972,-0.77055 -1.07622,-0.84816 -0.386035,-0.0613 -1.143702,0.25295 -2.035882,0.84429 -0.176501,0.11693 -0.581904,0.38114 -0.901001,0.58703 -0.319117,0.20591 -0.559755,0.38942 -0.534789,0.40782 0.02495,0.0183 0.535657,-0.009 1.134873,-0.0618 z m 5.445519,-0.46987 c 0.06683,-0.0471 0.05845,-0.10103 -0.01923,-0.12629 -0.07484,-0.0241 -0.188552,-0.006 -0.252752,0.0383 -0.06683,0.0471 -0.05861,0.10129 0.01923,0.12629 0.07484,0.0241 0.188566,0.006 0.252752,-0.0383 z m 15.453656,-1.24209 c 0.249863,-0.1392 0.29636,-0.33801 0.41517,-1.77737 0.02808,-0.33995 0.0713,-0.6456 0.09607,-0.67922 0.0248,-0.0336 0.05007,-0.21067 0.05624,-0.39341 0.0062,-0.1828 0.08102,-0.56957 0.166294,-0.85955 0.196358,-0.66757 0.189725,-0.82248 -0.04254,-0.99364 -0.423831,-0.31231 -0.524824,-0.12514 -0.821913,1.52361 -0.156086,0.86619 -0.370689,1.87168 -0.476909,2.23447 -0.18519,0.63251 -0.181505,0.66814 0.08956,0.86789 0.21681,0.15976 0.337486,0.17782 0.518025,0.0772 z m 1.860246,-1.10596 0.595406,-0.35382 -0.134074,-0.4605 c -0.07375,-0.25327 -0.250512,-0.79508 -0.39279,-1.20401 l -0.25872,-0.74349 -0.08619,0.36057 c -0.220083,0.92066 -0.500542,2.79917 -0.414782,2.77834 0.05271,-0.013 0.36368,-0.18249 0.691148,-0.37709 z m 13.896335,6.32989 c 0.0456,-0.27319 0.114512,-1.02185 0.15314,-1.66377 0.03865,-0.64194 0.09736,-1.41158 0.130492,-1.71034 0.03313,-0.29875 0.03611,-0.64064 0.0065,-0.7597 -0.02959,-0.11899 -0.03259,-0.31882 -0.0068,-0.44384 0.05258,-0.25505 0.143239,-1.57002 0.243015,-3.52504 0.0571,-1.11879 0.0345,-1.33407 -0.155102,-1.47825 -0.446073,-0.33986 -5.541464,-2.29926 -7.977609,-3.06858 -0.656831,-0.20743 -0.820599,-0.2296 -0.635826,-0.086 0.136447,0.10693 0.259272,0.25365 0.27184,0.32757 0.01257,0.0738 0.235176,0.4339 0.49464,0.80002 0.259434,0.36616 0.566971,0.82901 0.683416,1.02856 l 0.2117,0.36282 0.320573,-0.19214 c 0.631357,-0.37843 1.432516,-0.17596 1.725528,0.43606 0.151349,0.31622 0.289526,1.54024 0.225046,1.99425 -0.0383,0.26985 0.02953,0.4942 0.246458,0.81509 0.178573,0.26426 0.299552,0.59602 0.299911,0.82281 3.43e-4,0.209 0.06376,0.42659 0.140948,0.48346 0.143762,0.10591 1.386435,1.90537 2.008338,2.90816 0.237458,0.38286 0.386202,0.81848 0.470921,1.37914 0.09528,0.63049 0.205113,0.9264 0.476223,1.28306 0.193896,0.25485 0.381781,0.53893 0.417698,0.63107 0.103574,0.26583 0.160131,0.18759 0.248964,-0.34435 z M 62.032831,206.25544 c 0.254492,-0.0451 0.266319,-0.0736 0.33082,-0.7946 0.07723,-0.86302 0.03132,-1.4927 -0.109639,-1.50422 -0.05399,-0.004 -0.539423,0.59118 -1.079044,1.32347 l -0.981153,1.33148 0.787559,-0.15466 c 0.433142,-0.085 0.906311,-0.17571 1.051456,-0.20148 z m 9.401341,1.96409 c 0.117024,0.008 0.173785,-0.0501 0.198799,-0.20436 0.01923,-0.1186 0.167459,-0.52532 0.329338,-0.90352 0.29327,-0.68515 0.625493,-1.82829 0.590384,-2.03141 -0.03666,-0.21249 -1.122438,2.02456 -1.285358,2.64828 -0.111242,0.42588 -0.09537,0.47261 0.166879,0.49105 z"
       id="path11163"
       inkscape:connector-curvature="0" />
    <path
       style="fill:none;stroke:#4ae387;stroke-width:18.89763832;stroke-linecap:butt;stroke-linejoin:miter;stroke-miterlimit:4;stroke-dasharray:none;stroke-opacity:1"
       d="M 256 0 L 256 120.94531 L 256 0 z M 0 256 L 120.94531 256 L 0 256 z M 394.9668 258.26953 L 515.91016 258.26953 L 394.9668 258.26953 z M 256 391.05469 L 256 512 L 256 391.05469 z "
       id="path847"
       transform="matrix(0.26458333,0,0,0.26458333,0,161.53332)" />
  </g>
</svg>
