<?xml version="1.0" encoding="UTF-8" standalone="no"?>
<!-- Created with Inkscape (http://www.inkscape.org/) -->

<svg
   xmlns:dc="http://purl.org/dc/elements/1.1/"
   xmlns:cc="http://creativecommons.org/ns#"
   xmlns:rdf="http://www.w3.org/1999/02/22-rdf-syntax-ns#"
   xmlns:svg="http://www.w3.org/2000/svg"
   xmlns="http://www.w3.org/2000/svg"
   xmlns:xlink="http://www.w3.org/1999/xlink"
   xmlns:sodipodi="http://sodipodi.sourceforge.net/DTD/sodipodi-0.dtd"
   xmlns:inkscape="http://www.inkscape.org/namespaces/inkscape"
   width="150"
   height="50"
   viewBox="0 0 39.687499 13.229167"
   version="1.1"
   id="svg8"
   inkscape:version="0.92.2 (5c3e80d, 2017-08-06)"
   sodipodi:docname="Texto.svg"
   inkscape:export-filename="D:\Users\lucas\Desktop\banner.png"
   inkscape:export-xdpi="96"
   inkscape:export-ydpi="96">
  <defs
     id="defs2">
    <linearGradient
       id="linearGradient4576"
       inkscape:collect="always">
      <stop
         id="stop4572"
         offset="0"
         style="stop-color:#4ae387;stop-opacity:1;" />
      <stop
         id="stop4574"
         offset="1"
         style="stop-color:#1bad55;stop-opacity:1" />
    </linearGradient>
    <radialGradient
       gradientUnits="userSpaceOnUse"
       gradientTransform="matrix(1.3148528,0,0,1.7531371,43.061583,-180.22278)"
       r="37.644355"
       fy="231.1493"
       fx="66.121551"
       cy="231.1493"
       cx="66.121551"
       id="radialGradient4578"
       xlink:href="#linearGradient4576"
       inkscape:collect="always" />
    <symbol
       id="FirstAid_Inv">
      <title
         id="title4793">First Aid</title>
      <rect
         id="rect4795"
         style="stroke:#ffffff;stroke-width:0.26458332"
         ry="1.5875"
         height="18.785418"
         width="18.785418"
         y="0.13229166"
         x="0.13229166" />
      <path
         id="path4797"
         style="fill:#ffffff;stroke:none;stroke-width:0.26458332"
         d="m 11.641667,3.4395833 v 3.96875 h 3.96875 v 4.2333337 h -3.96875 v 3.96875 H 7.4083333 v -3.96875 h -3.96875 V 7.4083333 h 3.96875 v -3.96875 z"
         inkscape:connector-curvature="0" />
    </symbol>
  </defs>
  <sodipodi:namedview
     id="base"
     pagecolor="#ffffff"
     bordercolor="#666666"
     borderopacity="1.0"
     inkscape:pageopacity="0.0"
     inkscape:pageshadow="2"
     inkscape:zoom="11.2"
     inkscape:cx="60.145951"
     inkscape:cy="22.192595"
     inkscape:document-units="mm"
     inkscape:current-layer="layer1"
     showgrid="false"
     units="px"
     inkscape:window-width="2560"
     inkscape:window-height="1017"
     inkscape:window-x="-8"
     inkscape:window-y="-8"
     inkscape:window-maximized="1" />
  <metadata
     id="metadata5">
    <rdf:RDF>
      <cc:Work
         rdf:about="">
        <dc:format>image/svg+xml</dc:format>
        <dc:type
           rdf:resource="http://purl.org/dc/dcmitype/StillImage" />
        <dc:title></dc:title>
      </cc:Work>
    </rdf:RDF>
  </metadata>
  <g
     inkscape:label="Camada 1"
     inkscape:groupmode="layer"
     id="layer1"
     transform="translate(0,-283.77082)">
    <path
       style="fill:none;fill-opacity:1;stroke:#60e493;stroke-width:1.01349247;stroke-miterlimit:4;stroke-dasharray:none;stroke-opacity:1"
       d="m 0.50674623,284.27757 v 3.9369 c 1.83251997,-0.16924 3.98650797,-2.18832 3.98650797,-3.9369 z"
       id="rect4763"
       inkscape:connector-curvature="0"
       sodipodi:nodetypes="cccc" />
    <text
       xml:space="preserve"
       style="font-style:normal;font-variant:normal;font-weight:normal;font-stretch:normal;font-size:5.78866291px;line-height:1.25;font-family:Impact;-inkscape-font-specification:Impact;letter-spacing:0px;word-spacing:0px;fill:#60e493;fill-opacity:1;stroke:none;stroke-width:0.14471656;"
       x="19.255527"
       y="294.48184"
       id="text4749"><tspan
         sodipodi:role="line"
         id="tspan4747"
         x="19.255527"
         y="294.48184"
         style="font-style:normal;font-variant:normal;font-weight:normal;font-stretch:normal;font-family:Impact;-inkscape-font-specification:Impact;stroke-width:0.14471656;fill:#60e493;fill-opacity:1;">engue</tspan></text>
    <text
       xml:space="preserve"
       style="font-style:normal;font-variant:normal;font-weight:normal;font-stretch:normal;font-size:7.58991623px;line-height:1.25;font-family:Impact;-inkscape-font-specification:Impact;letter-spacing:0px;word-spacing:0px;fill:#60e493;fill-opacity:1;stroke:none;stroke-width:0.1897479;"
       x="5.4310617"
       y="291.76773"
       id="text4753"><tspan
         sodipodi:role="line"
         id="tspan4751"
         x="5.4310617"
         y="291.76773"
         style="font-style:normal;font-variant:normal;font-weight:normal;font-stretch:normal;font-family:Impact;-inkscape-font-specification:Impact;stroke-width:0.1897479;fill:#60e493;fill-opacity:1;">SA</tspan></text>
    <text
       xml:space="preserve"
       style="font-style:normal;font-variant:normal;font-weight:normal;font-stretch:normal;font-size:11.95426655px;line-height:1.25;font-family:Impact;-inkscape-font-specification:Impact;letter-spacing:0px;word-spacing:0px;fill:#60e493;fill-opacity:1;stroke:none;stroke-width:0.29885668;"
       x="13.052705"
       y="295.09189"
       id="text4757"><tspan
         sodipodi:role="line"
         id="tspan4755"
         x="13.052705"
         y="295.09189"
         style="font-style:normal;font-variant:normal;font-weight:normal;font-stretch:normal;font-family:Impact;-inkscape-font-specification:Impact;stroke-width:0.29885668;fill:#60e493;fill-opacity:1;">D</tspan></text>
    <path
       style="fill:none;fill-opacity:1;stroke:#60e493;stroke-width:1.01349247;stroke-miterlimit:4;stroke-dasharray:none;stroke-opacity:1"
       d="M 0.50674623,296.49324 H 4.4436462 c -0.16924,-1.83252 -2.18832,-3.98651 -3.93689997,-3.98651 z"
       id="rect4763-5"
       inkscape:connector-curvature="0"
       sodipodi:nodetypes="cccc" />
    <path
       style="fill:none;fill-opacity:1;stroke:#60e493;stroke-width:1.01349247;stroke-miterlimit:4;stroke-dasharray:none;stroke-opacity:1"
       d="m 39.180754,296.49324 v -3.9369 c -1.83252,0.16924 -3.98651,2.18832 -3.98651,3.9369 z"
       id="rect4763-5-1"
       inkscape:connector-curvature="0"
       sodipodi:nodetypes="cccc" />
    <path
       style="fill:none;fill-opacity:1;stroke:#60e493;stroke-width:1.01349247;stroke-miterlimit:4;stroke-dasharray:none;stroke-opacity:1"
       d="m 39.180754,284.27757 h -3.9369 c 0.16924,1.83252 2.18832,3.98651 3.9369,3.98651 z"
       id="rect4763-5-1-5"
       inkscape:connector-curvature="0"
       sodipodi:nodetypes="cccc" />
    <path
       inkscape:connector-curvature="0"
       id="path11163"
       d="m 24.552617,291.87495 c -0.02279,-0.0685 -0.01606,-0.20597 0.01664,-0.34032 0.01649,-0.0677 0.03433,-0.12593 0.03967,-0.12941 0.0051,-0.002 0.01939,-0.0586 0.03112,-0.12258 0.0165,-0.0897 0.03998,-0.161 0.102795,-0.3122 0.04472,-0.10777 0.09259,-0.23883 0.106294,-0.29127 0.07115,-0.27239 0.200382,-0.60159 0.30657,-0.78101 0.03368,-0.0568 0.07761,-0.13164 0.09774,-0.16632 0.05075,-0.0873 0.483138,-0.94799 0.66886,-1.33125 0.164115,-0.33862 0.210675,-0.45277 0.235988,-0.57822 0.0088,-0.0436 0.03099,-0.13268 0.04927,-0.19769 0.05358,-0.19059 0.0984,-0.38754 0.09492,-0.4171 -0.0022,-0.019 -0.01175,-0.0291 -0.03049,-0.0329 -0.03464,-0.007 -0.09204,-0.0608 -0.117071,-0.10995 -0.01066,-0.0209 -0.02507,-0.0701 -0.03207,-0.10934 -0.01211,-0.0677 -0.02723,-0.0771 -0.024,-0.0154 0.0038,0.0747 -0.118512,0.24407 -0.178345,0.24708 -0.02795,10e-4 -0.03784,-0.004 -0.06277,-0.0337 -0.01615,-0.0196 -0.03283,-0.0374 -0.03708,-0.0395 -0.01652,-0.007 -0.08137,-0.15468 -0.150732,-0.34118 -0.07964,-0.21424 -0.09716,-0.24444 -0.158683,-0.27362 -0.04961,-0.0235 -0.09874,-0.0232 -0.161741,10e-4 -0.04567,0.0177 -0.04733,0.02 -0.105386,0.14532 -0.05249,0.11346 -0.105713,0.25806 -0.12331,0.3352 -0.0038,0.0168 0.0019,0.031 0.01511,0.0373 0.01174,0.006 0.03133,0.0333 0.0436,0.0616 0.01683,0.0389 0.01849,0.0642 0.0067,0.10341 -0.02626,0.0872 -0.05795,0.11927 -0.147358,0.14922 l -0.08091,0.0271 -0.02831,0.0927 c -0.02326,0.0765 -0.03416,0.0981 -0.06164,0.1231 -0.01832,0.0167 -0.04726,0.0507 -0.06438,0.0759 -0.06206,0.0909 -0.148824,0.19296 -0.219361,0.25796 -0.03961,0.0365 -0.08231,0.0796 -0.09488,0.0957 -0.02365,0.0301 -0.132252,0.13097 -0.263224,0.24413 -0.04132,0.0356 -0.09557,0.0827 -0.120511,0.10451 -0.02497,0.0218 -0.05623,0.0424 -0.06952,0.0458 -0.01315,0.004 -0.0274,0.0131 -0.03133,0.0213 -0.0063,0.0132 -0.07066,0.0662 -0.226002,0.18616 -0.02369,0.0183 -0.06684,0.0521 -0.09589,0.0752 -0.06287,0.05 -0.117278,0.0821 -0.319025,0.18846 -0.236419,0.1246 -0.249682,0.13129 -0.269889,0.13598 -0.04368,0.01 -0.149086,0.0598 -0.119784,0.0566 0.03569,-0.004 0.04893,0.0137 0.01985,0.0276 -0.01041,0.005 -0.05188,0.0109 -0.09167,0.0128 -0.03979,0.002 -0.08907,0.007 -0.109503,0.0121 -0.140732,0.0294 -0.372919,0.0411 -0.393313,0.0197 -0.01872,-0.0196 0.009,-0.063 0.04763,-0.0745 0.01929,-0.006 0.05782,-0.0126 0.08568,-0.0154 0.02788,-0.002 0.06778,-0.0109 0.08876,-0.0178 0.02097,-0.007 0.09137,-0.0235 0.156415,-0.0365 0.271836,-0.0544 0.546843,-0.18196 0.779167,-0.36136 0.05032,-0.0389 0.105592,-0.079 0.122928,-0.0893 0.03951,-0.0234 0.226689,-0.17418 0.282918,-0.22794 0.09845,-0.0941 0.336613,-0.30767 0.381515,-0.34206 0.09528,-0.073 0.33841,-0.33286 0.365947,-0.39115 0.0086,-0.0183 0.0059,-0.0212 -0.01867,-0.0195 -0.0408,0.002 -0.05816,-0.0446 -0.03493,-0.0937 0.01593,-0.0338 0.01492,-0.0378 -0.01054,-0.0415 -0.01561,-0.002 -0.07928,0.006 -0.141731,0.0177 -0.06246,0.0121 -0.141946,0.0264 -0.176687,0.0321 -0.11827,0.0194 -0.181413,0.0512 -0.306054,0.15432 -0.06618,0.0547 -0.15885,0.13065 -0.205892,0.16862 -0.04702,0.0379 -0.120329,0.1062 -0.162865,0.15167 -0.04252,0.0454 -0.103497,0.10474 -0.135454,0.13164 -0.03197,0.0269 -0.05983,0.0527 -0.0619,0.057 -0.0021,0.005 -0.03959,0.0392 -0.08329,0.0774 -0.0437,0.0381 -0.08335,0.0774 -0.08808,0.0872 -0.0047,0.01 -0.0178,0.0201 -0.02911,0.0231 -0.01594,0.005 -0.02267,-0.002 -0.03042,-0.0264 -0.01292,-0.0426 0.02693,-0.12151 0.111743,-0.22123 0.03569,-0.0419 0.0767,-0.0917 0.09122,-0.11068 0.01442,-0.0189 0.05695,-0.0592 0.09431,-0.0894 0.03739,-0.0303 0.119154,-0.10608 0.181738,-0.1686 0.133361,-0.13319 0.249797,-0.23486 0.411274,-0.35911 0.06418,-0.0494 0.122941,-0.10305 0.130549,-0.11915 0.01303,-0.0276 0.0088,-0.0273 -0.07299,0.006 -0.04792,0.0193 -0.102298,0.0319 -0.121389,0.0281 -0.04367,-0.008 -0.07939,-0.0495 -0.06656,-0.0767 0.01236,-0.0262 0.104368,-0.077 0.154589,-0.0854 0.0666,-0.0109 0.135431,-0.0318 0.132232,-0.0398 -0.0015,-0.005 -0.0485,-0.0136 -0.103715,-0.0214 -0.05536,-0.007 -0.118876,-0.0212 -0.141119,-0.0304 -0.04301,-0.0177 -0.04561,-0.0176 -0.27498,0.0159 -0.130434,0.019 -0.268429,0.0286 -0.538855,0.0374 -0.04114,10e-4 -0.07808,10e-4 -0.08202,-8.5e-4 -0.004,-0.001 -0.04702,2e-5 -0.09567,0.004 -0.329418,0.0272 -0.621133,0.0247 -0.831474,-0.007 -0.06185,-0.01 -0.15437,-0.0223 -0.205644,-0.0286 -0.09581,-0.0121 -0.252081,-0.0731 -0.255102,-0.10026 -0.0029,-0.0263 0.04891,-0.0298 0.113463,-0.007 0.08101,0.0276 0.17934,0.0397 0.458862,0.0563 0.269611,0.016 0.640035,0.01 0.716349,-0.0121 0.01366,-0.005 0.03035,-0.004 0.03759,-7.3e-4 0.02169,0.01 0.372179,-0.0133 0.439044,-0.0295 0.03412,-0.008 0.06701,-0.0127 0.07308,-0.01 0.02357,0.0109 0.233283,-0.0274 0.256634,-0.0471 0.01361,-0.0121 0.02922,-0.0188 0.03477,-0.0161 0.0056,0.002 0.04604,10e-4 0.08996,-0.002 0.04392,-0.004 0.09405,-0.006 0.111416,-0.005 0.06009,0.005 0.328208,-0.0156 0.333163,-0.0262 0.02136,-0.0452 -0.03983,-0.20279 -0.10392,-0.26768 -0.04912,-0.0496 -0.244569,-0.13334 -0.515753,-0.22073 -0.102298,-0.0329 -0.20668,-0.0671 -0.232007,-0.0758 -0.02513,-0.01 -0.08048,-0.0259 -0.122306,-0.0387 -0.22381,-0.0671 -0.320841,-0.0976 -0.419706,-0.13211 -0.0598,-0.0215 -0.154633,-0.0504 -0.210162,-0.0654 -0.273167,-0.0736 -0.461623,-0.14401 -0.749211,-0.28001 -0.19713,-0.0931 -0.245863,-0.12012 -0.252636,-0.13849 -0.02556,-0.0714 0.03485,-0.0596 0.273719,0.0529 0.11023,0.0521 0.250394,0.11297 0.311062,0.13624 0.236833,0.0879 0.471285,0.16624 0.557501,0.18636 0.04965,0.0109 0.112858,0.0306 0.140642,0.0425 0.0913,0.0391 0.209834,0.0781 0.2897,0.0963 0.172095,0.0391 0.898918,0.30023 0.919038,0.33023 0.0031,0.006 0.02146,0.0128 0.04065,0.0165 0.02559,0.005 0.04368,-9.3e-4 0.06993,-0.0257 l 0.03554,-0.0334 -0.03613,-0.0398 c -0.02004,-0.0216 -0.0437,-0.0435 -0.05298,-0.0478 -0.0093,-0.005 -0.01947,-0.0145 -0.02312,-0.0217 -0.0099,-0.023 -0.138275,-0.14247 -0.222861,-0.2072 -0.04352,-0.0326 -0.108995,-0.0854 -0.146024,-0.11613 -0.03698,-0.0309 -0.118973,-0.0934 -0.18212,-0.13893 -0.06315,-0.0457 -0.134787,-0.0981 -0.159247,-0.11649 -0.02451,-0.0183 -0.09358,-0.0694 -0.153581,-0.11334 -0.05999,-0.0441 -0.129361,-0.10135 -0.154128,-0.12732 -0.02476,-0.026 -0.06559,-0.0626 -0.09077,-0.0811 -0.02518,-0.0186 -0.07153,-0.0643 -0.102964,-0.10172 -0.03144,-0.0374 -0.06322,-0.0707 -0.07055,-0.0743 -0.0073,-0.004 -0.02458,-0.0236 -0.03843,-0.0444 -0.01374,-0.0209 -0.06357,-0.0814 -0.110726,-0.13413 -0.04714,-0.0528 -0.08887,-0.10208 -0.09278,-0.10947 -0.01642,-0.0312 -0.285729,-0.37626 -0.344831,-0.44193 -0.03544,-0.0394 -0.0874,-0.10802 -0.115473,-0.15244 -0.02807,-0.0444 -0.06661,-0.10523 -0.0857,-0.13503 -0.01908,-0.0298 -0.04727,-0.088 -0.06274,-0.12941 -0.04214,-0.1131 -0.007,-0.1578 0.04258,-0.0541 0.04927,0.10293 0.14493,0.24504 0.310727,0.46138 0.09456,0.12342 0.363264,0.45247 0.395541,0.48444 0.02182,0.0211 0.05376,0.0598 0.07138,0.0854 0.06646,0.0965 0.229877,0.2711 0.342907,0.36647 0.02898,0.0245 0.111186,0.0865 0.182688,0.13773 0.0715,0.0513 0.174793,0.12611 0.229425,0.16638 0.09309,0.0683 0.130458,0.0947 0.303991,0.21405 0.03754,0.0258 0.106767,0.0802 0.153822,0.12085 0.04706,0.0407 0.09868,0.0845 0.114625,0.0976 0.016,0.013 0.04091,0.0392 0.05547,0.0584 0.01462,0.0189 0.03295,0.0378 0.04088,0.0415 0.0079,0.004 0.02676,0.0276 0.04176,0.0532 0.01503,0.0256 0.03202,0.0486 0.03771,0.0514 0.01534,0.007 0.03837,-0.0185 0.08131,-0.0911 0.02401,-0.0406 0.05519,-0.0758 0.08359,-0.0946 0.11339,-0.0747 0.115691,-0.0774 0.105313,-0.12258 -0.01041,-0.0452 -6.83e-4,-0.0748 0.03262,-0.0995 0.01401,-0.0109 0.0655,-0.10935 0.140986,-0.27067 0.151441,-0.32397 0.223418,-0.42979 0.390196,-0.57408 l 0.112228,-0.0971 0.09271,-0.1795 c 0.269033,-0.52128 0.276911,-0.53453 0.321164,-0.54021 0.0976,-0.0126 0.149008,0.0584 0.171411,0.23537 0.0175,0.13898 0.02679,0.18774 0.03794,0.1994 0.01066,0.0121 0.190519,0.0325 0.245125,0.0287 0.01405,-10e-4 0.05793,-10e-4 0.09804,-1.6e-4 0.0684,0.001 0.10455,0.006 0.259722,0.0314 l 0.06214,0.01 0.02238,-0.0556 c 0.01227,-0.0305 0.03735,-0.10571 0.05574,-0.1671 0.02978,-0.0995 0.06431,-0.20179 0.136446,-0.40416 0.04973,-0.13953 0.06422,-0.16229 0.104587,-0.16431 0.06807,-0.004 0.113972,0.072 0.110375,0.18137 -9.47e-4,0.0304 -0.01261,0.11831 -0.02578,0.19541 -0.02875,0.16808 -0.06173,0.43915 -0.05575,0.45812 0.0022,0.007 0.04554,0.0134 0.09587,0.0136 0.109333,-4e-5 0.419115,0.0257 0.487601,0.0404 0.02668,0.006 0.09845,0.01 0.159361,0.01 0.12332,-0.001 0.104393,0.0109 0.234615,-0.15128 0.126054,-0.15696 0.285023,-0.27133 0.340623,-0.24507 0.0607,0.0287 0.131345,0.16691 0.144715,0.28336 0.0013,0.0127 0.0088,0.0544 0.01628,0.0931 0.01338,0.0689 0.01472,0.0706 0.06385,0.0861 0.0611,0.0195 0.272867,0.0501 0.397801,0.0579 0.08983,0.006 0.18198,0.0204 0.441363,0.0706 0.07084,0.0138 0.182456,0.0326 0.247939,0.0421 0.06554,0.01 0.141049,0.0218 0.167773,0.0276 0.02668,0.006 0.10403,0.0207 0.171696,0.0334 0.06767,0.0127 0.184489,0.046 0.259596,0.0741 0.300347,0.11237 0.337562,0.12932 0.414954,0.18798 0.07411,0.0559 0.213623,0.21569 0.217885,0.24963 0.004,0.0315 -0.03228,0.0922 -0.07569,0.12708 -0.04495,0.0361 -0.09564,0.0461 -0.251613,0.0501 -0.04845,0.001 -0.107977,0.006 -0.132255,0.0109 -0.04402,0.008 -0.461554,0.0162 -0.476612,0.008 -0.0044,-0.002 -0.05524,-0.006 -0.113136,-0.008 -0.05785,-0.002 -0.163134,-0.008 -0.233955,-0.015 -0.07083,-0.006 -0.207914,-0.0156 -0.304725,-0.0212 -0.09681,-0.006 -0.236471,-0.0161 -0.310458,-0.0232 -0.07394,-0.007 -0.157418,-0.0138 -0.185441,-0.0149 -0.02797,-10e-4 -0.06398,-0.007 -0.07986,-0.0153 -0.05461,-0.0253 -0.07069,-0.0143 -0.0592,0.041 0.0057,0.0271 0.01354,0.0901 0.01745,0.13988 0.0064,0.0805 0.01728,0.17726 0.03687,0.32696 0.0035,0.0265 0.01162,0.075 0.01818,0.10753 0.0065,0.0326 0.01419,0.10245 0.01704,0.15536 0.0029,0.0529 0.01233,0.12676 0.02114,0.16401 0.01418,0.0602 0.02892,0.1532 0.0413,0.26058 0.0079,0.0684 0.151683,0.45445 0.202388,0.54332 0.02819,0.0495 0.05554,0.10136 0.06072,0.1154 0.005,0.0144 0.01722,0.0429 0.02672,0.0639 0.0097,0.0214 0.01199,0.0496 0.0051,0.0642 -0.0081,0.0173 -0.0018,0.0506 0.01873,0.0994 0.04901,0.11601 0.07259,0.16661 0.07961,0.17086 0.0035,0.002 0.0309,0.048 0.06076,0.10172 0.131315,0.23666 0.315014,0.53392 0.38384,0.62113 0.166457,0.21082 0.293684,0.33213 0.678085,0.6462 0.09503,0.0778 0.118682,0.0912 0.374661,0.2133 0.207671,0.0993 0.308067,0.1415 0.419267,0.17555 0.224436,0.0695 0.391877,0.1234 0.50575,0.16259 0.05678,0.0201 0.138012,0.0459 0.179997,0.0584 0.121978,0.0362 0.231456,0.0915 0.238811,0.12085 0.0054,0.0211 0.0016,0.0258 -0.027,0.0328 -0.05628,0.0137 -0.208934,-0.0271 -0.341619,-0.0914 -0.112034,-0.0542 -0.18381,-0.0788 -0.466232,-0.1612 -0.217004,-0.063 -0.265835,-0.0822 -0.553451,-0.21753 -0.267394,-0.12581 -0.297762,-0.14333 -0.38768,-0.21407 -0.1838,-0.14629 -0.299382,-0.24563 -0.409693,-0.35175 -0.103449,-0.0997 -0.134594,-0.13281 -0.22372,-0.23907 -0.01948,-0.0233 -0.0554,-0.0621 -0.07976,-0.0863 -0.0604,-0.0601 -0.152454,-0.19042 -0.179729,-0.25453 -0.03246,-0.0763 -0.100687,-0.18385 -0.133084,-0.20966 -0.02657,-0.0206 -0.02845,-0.0201 -0.03434,0.01 -0.0039,0.0196 -0.02268,0.0481 -0.04748,0.0718 -0.03507,0.0337 -0.05175,0.0395 -0.113935,0.0394 -0.07188,6e-5 -0.07453,-9.4e-4 -0.188218,-0.0693 -0.116454,-0.07 -0.148226,-0.10002 -0.190694,-0.18022 -0.01282,-0.0243 -0.03213,-0.0448 -0.04288,-0.0455 -0.0626,-0.005 -0.167696,-0.14015 -0.225297,-0.29034 l -0.03102,-0.0809 -0.06051,-0.0192 c -0.04568,-0.0149 -0.07006,-0.0291 -0.09908,-0.0616 -0.02119,-0.0234 -0.03688,-0.0461 -0.03479,-0.0506 0.0021,-0.005 -0.0028,-0.0121 -0.01114,-0.016 -0.0085,-0.004 -0.02434,-0.03 -0.03542,-0.0579 -0.01102,-0.0279 -0.03363,-0.0681 -0.05014,-0.0895 -0.02967,-0.0384 -0.138854,-0.13551 -0.148508,-0.13204 -0.0048,0.001 -0.01307,0.25081 -0.01175,0.3575 3.69e-4,0.0297 -0.0051,0.13854 -0.01212,0.24202 -0.007,0.10341 -0.0115,0.19481 -0.0098,0.20295 0.0019,0.007 0.0047,0.0487 0.0068,0.0902 0.0021,0.0414 0.0064,0.10983 0.0096,0.15185 0.0044,0.0576 -5.89e-4,0.0901 -0.02033,0.13229 -0.02003,0.0428 -0.02307,0.0633 -0.01294,0.0877 0.0073,0.0174 0.01389,0.0541 0.01474,0.0814 8.48e-4,0.0274 0.0046,0.0531 0.0082,0.0575 0.0036,0.005 0.01211,0.0344 0.01856,0.0668 0.01365,0.0681 0.01005,0.0519 0.04702,0.2164 0.01569,0.0701 0.03592,0.14983 0.04491,0.17725 0.009,0.0274 0.02016,0.082 0.0248,0.12126 0.0047,0.0392 0.0254,0.14392 0.04612,0.23262 0.05521,0.23651 0.06416,0.28523 0.107542,0.5855 0.02169,0.15021 0.04652,0.31862 0.05517,0.37426 0.0086,0.0557 0.01904,0.12685 0.02309,0.15823 0.0041,0.0314 0.01041,0.0676 0.01407,0.0804 0.03118,0.1091 0.05285,0.22265 0.04553,0.23814 -0.0046,0.01 0.0033,0.0438 0.01814,0.0745 0.01487,0.0306 0.02597,0.0648 0.02468,0.0759 -0.0031,0.0268 0.18499,0.56213 0.313696,0.89277 0.05621,0.14441 0.105592,0.28846 0.109745,0.32012 0.01609,0.12279 0.204073,0.62446 0.32906,0.8782 0.01418,0.0288 0.03538,0.0719 0.04704,0.0959 0.109903,0.22501 0.135986,0.27185 0.207218,0.37195 0.04227,0.0595 0.09898,0.13153 0.125993,0.16009 0.02702,0.0286 0.06282,0.0701 0.07956,0.0924 0.01674,0.0223 0.03542,0.0427 0.04149,0.0455 0.01357,0.006 0.06135,0.086 0.08543,0.14254 0.0216,0.0505 0.0051,0.0794 -0.03733,0.0652 -0.06861,-0.023 -0.379017,-0.40993 -0.457994,-0.57057 -0.03035,-0.0616 -0.03215,-0.0653 -0.05921,-0.11371 -0.01368,-0.0246 -0.02975,-0.0559 -0.0357,-0.0699 -0.0062,-0.0136 -0.03465,-0.0726 -0.06371,-0.13054 -0.165583,-0.32991 -0.343304,-0.77549 -0.359721,-0.90186 -0.005,-0.0383 -0.01951,-0.0873 -0.03231,-0.10911 -0.0128,-0.0218 -0.05093,-0.11661 -0.08472,-0.21062 -0.03377,-0.0941 -0.08225,-0.22106 -0.107662,-0.28239 -0.07808,-0.18843 -0.210433,-0.55585 -0.222683,-0.61816 -0.0064,-0.0324 -0.01466,-0.0685 -0.01847,-0.0799 -0.0039,-0.0109 -0.0046,-0.0258 -0.0018,-0.0316 0.0025,-0.006 -0.0085,-0.0257 -0.02494,-0.0441 -0.02825,-0.0312 -0.05148,-0.10596 -0.04035,-0.12955 0.0025,-0.006 6.36e-4,-0.0201 -0.0047,-0.0316 -0.0052,-0.0121 -0.01241,-0.0593 -0.01564,-0.1062 -0.01126,-0.16405 -0.06581,-0.54263 -0.113838,-0.79006 -0.01231,-0.0636 -0.02445,-0.13034 -0.02692,-0.14851 -0.009,-0.0661 -0.02677,-0.15794 -0.04104,-0.21217 -0.008,-0.0305 -0.02394,-0.10523 -0.03541,-0.16579 -0.02065,-0.10935 -0.106186,-0.48144 -0.127826,-0.55588 -0.0062,-0.0214 -0.02922,-0.10039 -0.05117,-0.17541 -0.03323,-0.11382 -0.03696,-0.14281 -0.02218,-0.17408 0.01221,-0.0258 0.0131,-0.0535 0.0029,-0.089 -0.0087,-0.0305 -0.0092,-0.11152 -9.8e-4,-0.19847 0.0076,-0.0808 0.01423,-0.16478 0.01475,-0.18662 0.0022,-0.0923 0.0059,-0.14795 0.01322,-0.19926 0.0042,-0.03 0.0048,-0.0659 0.0012,-0.0798 -0.0099,-0.0379 0.01407,-0.56142 0.02695,-0.58869 0.0062,-0.0131 -0.0884,-0.12545 -0.116927,-0.13894 -0.05178,-0.0245 -0.19304,-0.16083 -0.242398,-0.23396 -0.02975,-0.0441 -0.05728,-0.0817 -0.06125,-0.0836 -0.004,-0.002 -0.02752,-0.0327 -0.0524,-0.0684 -0.02488,-0.0357 -0.05953,-0.082 -0.07698,-0.10281 l -0.03174,-0.0379 -0.06492,0.0524 c -0.03572,0.029 -0.08841,0.0776 -0.117144,0.10826 -0.02872,0.0306 -0.07002,0.072 -0.0918,0.0922 -0.0395,0.0363 -0.03956,0.0366 -0.03028,0.0995 0.0051,0.0348 0.01114,0.0929 0.01342,0.12942 0.0023,0.0365 0.0069,0.0839 0.01029,0.10535 0.0034,0.0214 0.01439,0.0953 0.02435,0.1642 0.0099,0.0689 0.03857,0.19501 0.0635,0.28033 0.03659,0.12509 0.06187,0.18193 0.130732,0.29383 0.109261,0.17751 0.150343,0.23593 0.18638,0.26495 0.06849,0.0551 0.04117,0.0938 -0.03938,0.0558 -0.05962,-0.0282 -0.100542,-0.0684 -0.142014,-0.13955 -0.01831,-0.0314 -0.05663,-0.0923 -0.08516,-0.13518 -0.02853,-0.043 -0.06395,-0.10826 -0.07875,-0.14514 -0.02842,-0.0708 -0.08983,-0.27654 -0.09808,-0.32863 -0.0027,-0.017 -0.01558,-0.088 -0.0287,-0.15768 -0.01313,-0.0696 -0.02266,-0.12923 -0.0212,-0.13229 0.0073,-0.0154 -0.03541,-0.22171 -0.04562,-0.22056 -0.0065,9e-4 -0.03116,0.0162 -0.05464,0.0343 -0.02433,0.0188 -0.0573,0.0319 -0.07659,0.0304 -0.04339,-0.004 -0.118343,-0.0532 -0.159487,-0.10584 -0.01763,-0.0226 -0.03622,-0.0396 -0.04124,-0.0378 -0.0094,0.004 -0.0415,0.13181 -0.07356,0.29433 -0.0099,0.0505 -0.0379,0.17293 -0.06207,0.27199 -0.02417,0.0991 -0.05122,0.21585 -0.06015,0.25951 -0.02174,0.10657 -0.4174,0.96331 -0.705688,1.52815 -0.113572,0.22255 -0.250415,0.49238 -0.304064,0.59962 -0.05362,0.10728 -0.123404,0.23514 -0.154966,0.28426 -0.03162,0.049 -0.06396,0.11213 -0.07195,0.14011 -0.01664,0.0579 -0.125974,0.34939 -0.261684,0.69742 -0.09789,0.25105 -0.138486,0.39551 -0.118864,0.42303 0.0087,0.0121 0.0065,0.0206 -0.0082,0.0315 -0.01102,0.008 -0.0186,0.0186 -0.01703,0.0233 0.0016,0.005 -0.0082,0.0444 -0.02204,0.0884 -0.02427,0.0775 -0.0305,0.13402 -0.03096,0.28195 -1.18e-4,0.0389 -0.0064,0.0766 -0.0139,0.0838 -0.02206,0.0212 -0.06386,-0.007 -0.07956,-0.0549 z m -0.101863,-4.53784 c 0.06775,-0.0195 0.127313,-0.0335 0.13235,-0.0312 0.0051,0.002 0.04551,-0.007 0.08995,-0.0228 0.08858,-0.0297 0.15452,-0.0871 0.149395,-0.12998 -0.004,-0.0339 -0.08488,-0.0754 -0.143102,-0.0729 -0.0458,0.001 -0.125863,0.0549 -0.215155,0.14307 -0.01759,0.0174 -0.05833,0.0569 -0.09041,0.0879 -0.03208,0.0309 -0.0556,0.0574 -0.05232,0.059 0.0033,10e-4 0.06142,-0.0132 0.129162,-0.0327 z m 0.615848,-0.17695 c 0.0069,-0.007 0.0044,-0.013 -0.005,-0.0144 -0.009,-10e-4 -0.02184,0.004 -0.02821,0.01 -0.0069,0.007 -0.0045,0.0128 0.0048,0.0143 0.009,0.001 0.02184,-0.004 0.02821,-0.01 z m 1.749748,-0.49166 c 0.0256,-0.0217 0.0265,-0.0456 0.0076,-0.21384 -0.0045,-0.0397 -0.0064,-0.0759 -0.0042,-0.0804 0.0021,-0.005 0.001,-0.0254 -0.0024,-0.0465 -0.0034,-0.0212 -0.0035,-0.0675 -2.97e-4,-0.10256 0.0075,-0.0813 0.0033,-0.0989 -0.02732,-0.11335 -0.05581,-0.0264 -0.06321,-0.002 -0.06016,0.19382 0.0016,0.10317 -4.02e-4,0.22368 -0.0045,0.26782 -0.007,0.0769 -0.0058,0.081 0.02989,0.0978 0.02854,0.0135 0.04308,0.0124 0.06132,-0.002 z m 0.189047,-0.16922 0.06052,-0.0541 -0.02582,-0.05 c -0.0142,-0.0275 -0.04675,-0.0859 -0.07235,-0.12967 l -0.04654,-0.0797 -0.0018,0.0435 c -0.0046,0.11092 0.0056,0.3333 0.01499,0.32897 0.0058,-0.002 0.03771,-0.0292 0.07101,-0.059 z m 1.741489,0.41456 c -9.3e-4,-0.0325 -0.0099,-0.12013 -0.01993,-0.19487 -0.01005,-0.0747 -0.02066,-0.16458 -0.02359,-0.19969 -0.0029,-0.0351 -0.01029,-0.0745 -0.01638,-0.0875 -0.0058,-0.0134 -0.0109,-0.036 -0.01078,-0.0509 2.93e-4,-0.0305 -0.01896,-0.18384 -0.0516,-0.41099 -0.01866,-0.13002 -0.02614,-0.15426 -0.05121,-0.16656 -0.059,-0.0291 -0.689385,-0.13944 -0.986999,-0.17297 -0.08027,-0.008 -0.09956,-0.008 -0.07509,0.005 0.0181,0.01 0.03548,0.0235 0.03863,0.0316 0.0031,0.008 0.03686,0.0446 0.07498,0.0808 0.03813,0.0362 0.0839,0.0826 0.101838,0.10293 l 0.03256,0.0369 0.03255,-0.0293 c 0.06411,-0.0579 0.160832,-0.0525 0.208338,0.0109 0.02453,0.0331 0.06807,0.17067 0.0709,0.22435 0.0017,0.0318 0.01457,0.0562 0.04673,0.0883 0.02652,0.0263 0.04794,0.0618 0.05307,0.0879 0.0047,0.0241 0.01695,0.0477 0.02711,0.0524 0.01893,0.008 0.202483,0.18793 0.296675,0.28922 0.03595,0.0386 0.06291,0.0855 0.08532,0.14798 0.02518,0.0705 0.04451,0.10196 0.08371,0.13692 0.02792,0.0252 0.05608,0.0534 0.06229,0.0632 0.0179,0.0282 0.02287,0.0176 0.02085,-0.0452 z m -2.891721,-2.0898 c 0.02824,-0.0109 0.02896,-0.0144 0.02011,-0.0988 -0.01066,-0.10099 -0.03009,-0.17242 -0.04656,-0.17057 -0.0064,0.001 -0.04875,0.0803 -0.09427,0.1766 l -0.08283,0.17533 0.08713,-0.0356 c 0.0479,-0.0196 0.100264,-0.0406 0.116418,-0.0469 z m 1.125857,0.0138 c 0.01361,-0.001 0.01887,-0.01 0.01828,-0.028 -4.74e-4,-0.014 0.0074,-0.0643 0.01749,-0.11129 0.01826,-0.0854 0.0307,-0.22444 0.02208,-0.24702 -0.009,-0.0236 -0.08344,0.25824 -0.08809,0.33368 -0.0031,0.0516 -2.99e-4,0.0566 0.03027,0.0527 z"
       style="fill:#60e493;fill-opacity:1;stroke-width:0.01210894" />
  </g>
</svg>
